<svg xmlns="http://www.w3.org/2000/svg" width="500" height="500" viewBox="0 0 500 500" fill="none"><metadata><rdf:RDF xmlns:rdf="http://www.w3.org/1999/02/22-rdf-syntax-ns#" xmlns:dc="http://purl.org/dc/elements/1.1/"><rdf:Description><dc:creator>RealFaviconGenerator</dc:creator><dc:source>https://realfavicongenerator.net</dc:source></rdf:Description></rdf:RDF></metadata><path d="M175.681 368.929C122.445 327.912 59.9165 279.737 59.9165 196.224C59.9165 104.031 164.19 38.6494 249.5 127.283L287.416 165.174C292.969 170.726 301.973 170.724 307.526 165.17C313.077 159.616 313.075 150.614 307.522 145.062L270.894 108.447C351.278 49.6002 439.083 111.624 439.083 196.224C439.083 279.737 376.555 327.912 323.318 368.929C317.786 373.193 312.352 377.379 307.101 381.519C287.416 397.036 268.458 411.646 249.5 411.646C230.541 411.646 211.583 397.036 191.899 381.519C186.647 377.379 181.215 373.193 175.681 368.929Z" fill="#BB0D44"></path></svg>